<mxfile host="app.diagrams.net" modified="2021-08-18T03:21:54.103Z" agent="5.0 (Windows NT 10.0; Win64; x64) AppleWebKit/537.36 (KHTML, like Gecko) Chrome/92.0.4515.131 Safari/537.36" etag="WyZBuuhNy6zrXnX7Sy1_" version="14.9.7" type="github">
  <diagram id="CBNehf3eAxYr-xVHiAsI" name="Page-1">
    <mxGraphModel dx="1209" dy="652" grid="1" gridSize="10" guides="1" tooltips="1" connect="1" arrows="1" fold="1" page="1" pageScale="1" pageWidth="827" pageHeight="1169" math="0" shadow="0">
      <root>
        <mxCell id="0" />
        <mxCell id="1" parent="0" />
        <mxCell id="4cbYbfS1QU935IwB8YQP-3" value="&amp;nbsp; &amp;nbsp;HTTP &lt;br&gt;&amp;nbsp; header" style="rounded=0;whiteSpace=wrap;html=1;fillColor=#fff2cc;strokeColor=#d6b656;fontSize=16;align=left;" vertex="1" parent="1">
          <mxGeometry x="300" y="200" width="160" height="44" as="geometry" />
        </mxCell>
        <mxCell id="4cbYbfS1QU935IwB8YQP-1" value="data" style="rounded=0;whiteSpace=wrap;html=1;fillColor=#d5e8d4;strokeColor=#82b366;fontSize=16;" vertex="1" parent="1">
          <mxGeometry x="380" y="150" width="80" height="40" as="geometry" />
        </mxCell>
        <mxCell id="4cbYbfS1QU935IwB8YQP-2" value="data" style="rounded=0;whiteSpace=wrap;html=1;fillColor=#d5e8d4;strokeColor=#82b366;fontSize=16;" vertex="1" parent="1">
          <mxGeometry x="380" y="204" width="80" height="40" as="geometry" />
        </mxCell>
        <mxCell id="4cbYbfS1QU935IwB8YQP-6" value="&amp;nbsp; &amp;nbsp; TCP &lt;br&gt;&amp;nbsp; header" style="rounded=0;whiteSpace=wrap;html=1;fillColor=#e1d5e7;strokeColor=#9673a6;fontSize=16;align=left;" vertex="1" parent="1">
          <mxGeometry x="210" y="250" width="250" height="48" as="geometry" />
        </mxCell>
        <mxCell id="4cbYbfS1QU935IwB8YQP-10" value="&amp;nbsp; &amp;nbsp; IP &lt;br&gt;header" style="rounded=0;whiteSpace=wrap;html=1;fillColor=#ffe6cc;strokeColor=#d79b00;fontSize=16;align=left;" vertex="1" parent="1">
          <mxGeometry x="140" y="310" width="320" height="48" as="geometry" />
        </mxCell>
        <mxCell id="4cbYbfS1QU935IwB8YQP-14" value="Ethernet &lt;br&gt;&amp;nbsp;header" style="rounded=0;whiteSpace=wrap;html=1;fillColor=#f5f5f5;strokeColor=#666666;fontSize=16;fontColor=#333333;align=left;" vertex="1" parent="1">
          <mxGeometry x="70" y="367" width="390" height="54" as="geometry" />
        </mxCell>
        <mxCell id="4cbYbfS1QU935IwB8YQP-16" value="&amp;nbsp; &amp;nbsp;HTTP &lt;br&gt;&amp;nbsp; header" style="rounded=0;whiteSpace=wrap;html=1;fillColor=#fff2cc;strokeColor=#d6b656;fontSize=16;align=left;" vertex="1" parent="1">
          <mxGeometry x="300" y="258" width="160" height="40" as="geometry" />
        </mxCell>
        <mxCell id="4cbYbfS1QU935IwB8YQP-17" value="data" style="rounded=0;whiteSpace=wrap;html=1;fillColor=#d5e8d4;strokeColor=#82b366;fontSize=16;" vertex="1" parent="1">
          <mxGeometry x="380" y="268" width="80" height="30" as="geometry" />
        </mxCell>
        <mxCell id="4cbYbfS1QU935IwB8YQP-18" value="&amp;nbsp; &amp;nbsp; TCP &lt;br&gt;&amp;nbsp; header" style="rounded=0;whiteSpace=wrap;html=1;fillColor=#e1d5e7;strokeColor=#9673a6;fontSize=16;align=left;" vertex="1" parent="1">
          <mxGeometry x="210" y="314" width="250" height="44" as="geometry" />
        </mxCell>
        <mxCell id="4cbYbfS1QU935IwB8YQP-19" value="&amp;nbsp; &amp;nbsp;HTTP &lt;br&gt;&amp;nbsp; header" style="rounded=0;whiteSpace=wrap;html=1;fillColor=#fff2cc;strokeColor=#d6b656;fontSize=16;align=left;" vertex="1" parent="1">
          <mxGeometry x="300" y="318" width="160" height="40" as="geometry" />
        </mxCell>
        <mxCell id="4cbYbfS1QU935IwB8YQP-20" value="data" style="rounded=0;whiteSpace=wrap;html=1;fillColor=#d5e8d4;strokeColor=#82b366;fontSize=16;" vertex="1" parent="1">
          <mxGeometry x="380" y="328" width="80" height="30" as="geometry" />
        </mxCell>
        <mxCell id="4cbYbfS1QU935IwB8YQP-21" value="&amp;nbsp; &amp;nbsp; IP &lt;br&gt;header" style="rounded=0;whiteSpace=wrap;html=1;fillColor=#ffe6cc;strokeColor=#d79b00;fontSize=16;align=left;" vertex="1" parent="1">
          <mxGeometry x="140" y="371" width="320" height="50" as="geometry" />
        </mxCell>
        <mxCell id="4cbYbfS1QU935IwB8YQP-22" value="&amp;nbsp; &amp;nbsp; TCP &lt;br&gt;&amp;nbsp; header" style="rounded=0;whiteSpace=wrap;html=1;fillColor=#e1d5e7;strokeColor=#9673a6;fontSize=16;align=left;" vertex="1" parent="1">
          <mxGeometry x="210" y="378" width="250" height="43" as="geometry" />
        </mxCell>
        <mxCell id="4cbYbfS1QU935IwB8YQP-23" value="&amp;nbsp; &amp;nbsp;HTTP &lt;br&gt;&amp;nbsp; header" style="rounded=0;whiteSpace=wrap;html=1;fillColor=#fff2cc;strokeColor=#d6b656;fontSize=16;align=left;" vertex="1" parent="1">
          <mxGeometry x="300" y="381" width="160" height="40" as="geometry" />
        </mxCell>
        <mxCell id="4cbYbfS1QU935IwB8YQP-24" value="data" style="rounded=0;whiteSpace=wrap;html=1;fillColor=#d5e8d4;strokeColor=#82b366;fontSize=16;" vertex="1" parent="1">
          <mxGeometry x="380" y="391" width="80" height="30" as="geometry" />
        </mxCell>
      </root>
    </mxGraphModel>
  </diagram>
</mxfile>
